<?xml version="1.0" encoding="utf-8"?>
<!-- Generator: Adobe Illustrator 19.2.1, SVG Export Plug-In . SVG Version: 6.00 Build 0)  -->
<svg version="1.1" id="Calque_1" xmlns="http://www.w3.org/2000/svg" xmlns:xlink="http://www.w3.org/1999/xlink" x="0px" y="0px"
	 viewBox="0 0 1000 1000" style="enable-background:new 0 0 1000 1000;" xml:space="preserve">
<style type="text/css">
	.st0{fill:#1D1D1B;}
</style>
<path class="st0" d="M599.7,233.3C599.7,72.9,526.7,0,366.3,0C360,0,306,0,299.7,0C139.2,0,66.3,72.9,66.3,233.3v333.3
	c0,160.4,72.9,233.3,233.3,233.3c6.4,0,60.3,0,66.7,0c23,0,44.2-1.6,63.6-4.6l3.1,4.6h166.7L552,733.7
	c32.2-38.2,47.6-93.4,47.6-167.1V233.3z M455.8,600l-156.2,0l44.4,66.7l-44.4,0c-68.7,0-100-31.3-100-100V233.3
	c0-68.7,31.3-100,100-100h66.7c68.7,0,100,31.3,100,100v333.3c0,15.6-1.7,29.2-5,41L455.8,600z"/>
</svg>
